<svg xmlns="http://www.w3.org/2000/svg" viewBox="0 0 512 512" width="512" height="512">
  <defs>
    <linearGradient id="bg" x1="0" y1="0" x2="1" y2="1">
      <stop offset="0%" stop-color="#312e81"/>
      <stop offset="100%" stop-color="#1e1b4b"/>
    </linearGradient>
    <linearGradient id="fire" x1="0" y1="0" x2="0" y2="1">
      <stop offset="0%" stop-color="#f59e0b"/>
      <stop offset="100%" stop-color="#ef4444"/>
    </linearGradient>
  </defs>
  <rect width="512" height="512" rx="96" fill="url(#bg)"/>
  <g stroke="#6366f1" stroke-width="3" opacity="0.25">
    <line x1="170" y1="100" x2="170" y2="412"/>
    <line x1="342" y1="100" x2="342" y2="412"/>
    <line x1="85" y1="192" x2="427" y2="192"/>
    <line x1="85" y1="320" x2="427" y2="320"/>
  </g>
  <rect x="95" y="110" width="140" height="140" rx="20" fill="#818cf8" opacity="0.85"/>
  <text x="165" y="200" text-anchor="middle" fill="white" font-size="76" font-weight="900" font-family="Arial">B</text>
  <rect x="265" y="110" width="150" height="140" rx="20" fill="#818cf8" opacity="0.85"/>
  <text x="340" y="200" text-anchor="middle" fill="white" font-size="76" font-weight="900" font-family="Arial">C</text>
  <rect x="180" y="255" width="152" height="140" rx="20" fill="url(#fire)" opacity="0.9"/>
  <text x="256" y="345" text-anchor="middle" fill="white" font-size="76" font-weight="900" font-family="Arial">W</text>
  <g transform="translate(380,360) rotate(-45)" opacity="0.5">
    <rect x="-5" y="-70" width="10" height="85" rx="3" fill="#fbbf24"/>
    <rect x="-18" y="8" width="36" height="8" rx="3" fill="#fbbf24"/>
  </g>
  <circle cx="400" cy="120" r="8" fill="#fbbf24" opacity="0.7"/>
  <circle cx="110" cy="380" r="5" fill="#818cf8" opacity="0.5"/>
  <circle cx="420" cy="280" r="4" fill="#c084fc" opacity="0.6"/>
</svg>
